<svg xmlns="http://www.w3.org/2000/svg" viewBox="0 0 900 900" enable-background="new 0 0 900 900">
    <path fill="#fff" d="M837.7 776l-375-175-375 175v75h750zM729 575.4c-2.6-153.7-83.4-295.7-204.4-375.5v-22.1c0-27.1-17.2-50.1-41.5-58.5 6.8-6.4 10.9-17.7 10.9-35.6 0-31.9-23.9-57.8-31.4-57.8s-31.5 25.9-31.5 57.8c0 17.9 3.7 29.2 10.5 35.6-24.3 8.4-42 31.4-42 58.5V200c-120 79.7-201.3 221.8-203.9 375.5l-33 15.5v100l300-140 300 140V591L729 575.4zm-212.3-98l-54.1-25.6-54.1 25.6 7.6-59.3-41-43.5 58.8-11.1 28.7-52.5 28.7 52.5 58.8 11.1-41 43.5 7.6 59.3z"/>
</svg>