<svg xmlns="http://www.w3.org/2000/svg" viewBox="0 0 800 400" enable-background="new 0 0 800 400">
    <g>
        <path fill="#3C4655" d="M469 261.1l-68-31.9-68 31.9V275h136z"/>
        <path fill="#3B4554" d="M450.1 224.6c-.5-28-16.1-53.9-37.1-68.4v-4c0-4.9-3.5-9.1-7.9-10.7 1.2-1.2 1.8-3.2 1.8-6.5 0-5.8-4.5-10.5-5.8-10.5s-5.8 4.7-5.8 10.5c0 3.3.4 5.3 1.7 6.5-4.4 1.5-7.9 5.7-7.9 10.7v4c-21 14.5-36.6 40.4-37.1 68.4l-5.9 2.8v18.2l55-25.5 55 25.5v-18.2l-6-2.8z"/>
        <path fill="#fff" d="M400.9 176.4l5.3 9.5 10.7 2.1-7.5 7.9 1.4 10.8-9.9-4.6-9.8 4.6 1.4-10.8-7.5-7.9 10.7-2.1z"/>
    </g>
</svg>
